HIERARCHY
ROOT Hips
{
	OFFSET 0.000000 83.214638 0.000000
	CHANNELS 6 Xposition Yposition Zposition Xrotation Yrotation Zrotation
	JOINT Pelvis
	{
		OFFSET 0.000000 0.000000 0.000000
		CHANNELS 3 Xrotation Yrotation Zrotation
		JOINT LeftUpLeg
		{
			OFFSET 8.479700 -4.795502 -0.379100
			CHANNELS 3 Xrotation Yrotation Zrotation
			JOINT LeftLeg
			{
				OFFSET 0.024144 -32.555107 0.112900
				CHANNELS 3 Xrotation Yrotation Zrotation
				JOINT LeftFoot
				{
					OFFSET -0.024144 -32.638630 -3.012600
					CHANNELS 3 Xrotation Yrotation Zrotation
					JOINT LeftToeBase
					{
						OFFSET 0.970200 -13.225400 11.864200
						CHANNELS 3 Xrotation Yrotation Zrotation
						End Site
						{
							OFFSET 0.000000 12.319262 0.000000
						}
					}
					JOINT LFootTongue
					{
						OFFSET 1.142400 -1.059800 6.665200
						CHANNELS 3 Xrotation Yrotation Zrotation
						End Site
						{
							OFFSET 0.000000 12.319262 0.000000
						}
					}
				}
				JOINT LeftPantLeg
				{
					OFFSET 0.918482 -16.533964 -2.284700
					CHANNELS 3 Xrotation Yrotation Zrotation
					End Site
					{
						OFFSET 0.350399 24.744368 0.000000
					}
				}
			}
		}
		JOINT RightUpLeg
		{
			OFFSET -8.479700 -4.795502 -0.379100
			CHANNELS 3 Xrotation Yrotation Zrotation
			JOINT RightLeg
			{
				OFFSET -0.023144 -32.555092 0.112900
				CHANNELS 3 Xrotation Yrotation Zrotation
				JOINT RightFoot
				{
					OFFSET 0.023144 -32.638641 -3.012700
					CHANNELS 3 Xrotation Yrotation Zrotation
					JOINT RightToeBase
					{
						OFFSET -0.970200 -13.225400 11.864200
						CHANNELS 3 Xrotation Yrotation Zrotation
						End Site
						{
							OFFSET 0.000000 12.319244 0.000000
						}
					}
					JOINT RFootTongue
					{
						OFFSET -1.142200 -1.059800 6.665200
						CHANNELS 3 Xrotation Yrotation Zrotation
						End Site
						{
							OFFSET 0.000000 12.319243 0.000000
						}
					}
				}
				JOINT RightPantLeg
				{
					OFFSET -0.919482 -16.533978 -2.284800
					CHANNELS 3 Xrotation Yrotation Zrotation
					End Site
					{
						OFFSET -0.350400 24.744419 0.000000
					}
				}
			}
		}
	}
	JOINT Spine
	{
		OFFSET 0.000000 7.722000 1.166200
		CHANNELS 3 Xrotation Yrotation Zrotation
		JOINT Spine1
		{
			OFFSET 0.000000 12.024101 0.248800
			CHANNELS 3 Xrotation Yrotation Zrotation
			JOINT Spine2
			{
				OFFSET 0.000000 11.502998 -0.491200
				CHANNELS 3 Xrotation Yrotation Zrotation
				JOINT Neck
				{
					OFFSET 0.000000 18.430702 -3.123100
					CHANNELS 3 Xrotation Yrotation Zrotation
					JOINT Head
					{
						OFFSET 0.000000 9.051102 1.034000
						CHANNELS 3 Xrotation Yrotation Zrotation
						JOINT HairB
						{
							OFFSET 0.208400 24.786102 24.822300
							CHANNELS 3 Xrotation Yrotation Zrotation
							End Site
							{
								OFFSET 0.000000 32.263779 0.000000
							}
						}
						JOINT HairA
						{
							OFFSET -7.081100 24.428299 23.196600
							CHANNELS 3 Xrotation Yrotation Zrotation
							End Site
							{
								OFFSET 0.000000 32.263779 0.000000
							}
						}
						JOINT Hat
						{
							OFFSET 16.728800 15.048294 -15.439601
							CHANNELS 3 Xrotation Yrotation Zrotation
							End Site
							{
								OFFSET 0.000000 32.263779 0.000000
							}
						}
					}
				}
				JOINT LeftShoulder
				{
					OFFSET 6.197800 13.665199 -4.064700
					CHANNELS 3 Xrotation Yrotation Zrotation
					JOINT LeftArm
					{
						OFFSET 7.778100 -0.187103 -1.709300
						CHANNELS 3 Xrotation Yrotation Zrotation
						JOINT LeftForeArm
						{
							OFFSET 22.049376 0.000000 0.000000
							CHANNELS 3 Xrotation Yrotation Zrotation
							JOINT LeftHand
							{
								OFFSET 23.009392 0.000000 0.000000
								CHANNELS 3 Xrotation Yrotation Zrotation
								JOINT LeftHandThumb1
								{
									OFFSET 3.507191 -2.063065 3.133727
									CHANNELS 3 Xrotation Yrotation Zrotation
									JOINT LeftHandThumb2
									{
										OFFSET 3.101337 -1.790558 1.790558
										CHANNELS 3 Xrotation Yrotation Zrotation
										JOINT LeftHandThumb3
										{
											OFFSET 3.058640 -1.765907 1.765906
											CHANNELS 3 Xrotation Yrotation Zrotation
											End Site
											{
												OFFSET -0.415260 3.926476 -0.049563
											}
										}
									}
								}
								JOINT LeftHandIndex1
								{
									OFFSET 11.334419 -0.901459 3.706815
									CHANNELS 3 Xrotation Yrotation Zrotation
									JOINT LeftHandIndex2
									{
										OFFSET 3.283112 0.000000 0.000000
										CHANNELS 3 Xrotation Yrotation Zrotation
										JOINT LeftHandIndex3
										{
											OFFSET 3.323853 0.000000 0.000000
											CHANNELS 3 Xrotation Yrotation Zrotation
											End Site
											{
												OFFSET -1.135597 3.097809 0.402452
											}
										}
									}
								}
								JOINT LeftHandMiddle1
								{
									OFFSET 11.335861 0.000000 0.000000
									CHANNELS 3 Xrotation Yrotation Zrotation
									JOINT LeftHandMiddle2
									{
										OFFSET 3.410492 0.000000 0.000000
										CHANNELS 3 Xrotation Yrotation Zrotation
										JOINT LeftHandMiddle3
										{
											OFFSET 3.312172 0.000000 0.000000
											CHANNELS 3 Xrotation Yrotation Zrotation
											End Site
											{
												OFFSET -1.150200 3.080154 0.400270
											}
										}
									}
								}
								JOINT LeftHandRing1
								{
									OFFSET 11.514786 -0.013176 -3.003090
									CHANNELS 3 Xrotation Yrotation Zrotation
									JOINT LeftHandRing2
									{
										OFFSET 3.053307 0.000000 0.000000
										CHANNELS 3 Xrotation Yrotation Zrotation
										JOINT LeftHandRing3
										{
											OFFSET 3.295807 0.000000 0.000000
											CHANNELS 3 Xrotation Yrotation Zrotation
											End Site
											{
												OFFSET -1.281006 3.013344 0.375733
											}
										}
									}
								}
								JOINT LeftHandPinky1
								{
									OFFSET 10.518692 -0.960396 -5.730441
									CHANNELS 3 Xrotation Yrotation Zrotation
									JOINT LeftHandPinky2
									{
										OFFSET 2.861649 0.000000 0.000000
										CHANNELS 3 Xrotation Yrotation Zrotation
										JOINT LeftHandPinky3
										{
											OFFSET 2.863380 0.000000 0.000000
											CHANNELS 3 Xrotation Yrotation Zrotation
											End Site
											{
												OFFSET -0.843597 2.711159 0.369971
											}
										}
									}
								}
							}
							JOINT LSleeve
							{
								OFFSET 6.676277 -0.344902 -1.011730
								CHANNELS 3 Xrotation Yrotation Zrotation
								End Site
								{
									OFFSET 0.000000 14.885353 0.000000
								}
							}
						}
					}
				}
				JOINT RightShoulder
				{
					OFFSET -6.197800 13.665199 -4.064700
					CHANNELS 3 Xrotation Yrotation Zrotation
					JOINT RightArm
					{
						OFFSET -7.778100 -0.187103 -1.709300
						CHANNELS 3 Xrotation Yrotation Zrotation
						JOINT RightForeArm
						{
							OFFSET -22.049376 0.000000 0.000000
							CHANNELS 3 Xrotation Yrotation Zrotation
							JOINT RightHand
							{
								OFFSET -23.009392 0.000000 0.000000
								CHANNELS 3 Xrotation Yrotation Zrotation
								JOINT RightHandThumb1
								{
									OFFSET -3.507191 -2.063065 3.133727
									CHANNELS 3 Xrotation Yrotation Zrotation
									JOINT RightHandThumb2
									{
										OFFSET -3.101337 -1.790558 1.790558
										CHANNELS 3 Xrotation Yrotation Zrotation
										JOINT RightHandThumb3
										{
											OFFSET -3.058640 -1.765907 1.765906
											CHANNELS 3 Xrotation Yrotation Zrotation
											End Site
											{
												OFFSET 0.415260 3.926476 -0.049563
											}
										}
									}
								}
								JOINT RightHandIndex1
								{
									OFFSET -11.334419 -0.901459 3.706815
									CHANNELS 3 Xrotation Yrotation Zrotation
									JOINT RightHandIndex2
									{
										OFFSET -3.283112 0.000000 0.000000
										CHANNELS 3 Xrotation Yrotation Zrotation
										JOINT RightHandIndex3
										{
											OFFSET -3.323853 0.000000 0.000000
											CHANNELS 3 Xrotation Yrotation Zrotation
											End Site
											{
												OFFSET 1.135597 3.097809 0.402452
											}
										}
									}
								}
								JOINT RightHandMiddle1
								{
									OFFSET -11.335861 0.000000 0.000000
									CHANNELS 3 Xrotation Yrotation Zrotation
									JOINT RightHandMiddle2
									{
										OFFSET -3.410492 0.000000 0.000000
										CHANNELS 3 Xrotation Yrotation Zrotation
										JOINT RightHandMiddle3
										{
											OFFSET -3.312172 0.000000 0.000000
											CHANNELS 3 Xrotation Yrotation Zrotation
											End Site
											{
												OFFSET 1.150200 3.080154 0.400270
											}
										}
									}
								}
								JOINT RightHandRing1
								{
									OFFSET -11.514786 -0.013176 -3.003090
									CHANNELS 3 Xrotation Yrotation Zrotation
									JOINT RightHandRing2
									{
										OFFSET -3.053307 0.000000 0.000000
										CHANNELS 3 Xrotation Yrotation Zrotation
										JOINT RightHandRing3
										{
											OFFSET -3.295807 0.000000 0.000000
											CHANNELS 3 Xrotation Yrotation Zrotation
											End Site
											{
												OFFSET 1.281006 3.013344 0.375733
											}
										}
									}
								}
								JOINT RightHandPinky1
								{
									OFFSET -10.518692 -0.960396 -5.730441
									CHANNELS 3 Xrotation Yrotation Zrotation
									JOINT RightHandPinky2
									{
										OFFSET -2.861649 0.000000 0.000000
										CHANNELS 3 Xrotation Yrotation Zrotation
										JOINT RightHandPinky3
										{
											OFFSET -2.863380 0.000000 0.000000
											CHANNELS 3 Xrotation Yrotation Zrotation
											End Site
											{
												OFFSET 0.843597 2.711159 0.369971
											}
										}
									}
								}
							}
							JOINT RSleeve
							{
								OFFSET -6.676277 -0.344902 -1.011730
								CHANNELS 3 Xrotation Yrotation Zrotation
								End Site
								{
									OFFSET 0.000000 14.885353 0.000000
								}
							}
						}
					}
				}
				JOINT Backpack
				{
					OFFSET 0.000000 -2.471497 36.677502
					CHANNELS 3 Xrotation Yrotation Zrotation
					End Site
					{
						OFFSET 0.000000 20.427315 0.000000
					}
				}
				JOINT Hood
				{
					OFFSET 0.000000 18.754097 -10.431000
					CHANNELS 3 Xrotation Yrotation Zrotation
					JOINT Hood1
					{
						OFFSET 0.000000 -5.011002 -7.685901
						CHANNELS 3 Xrotation Yrotation Zrotation
						End Site
						{
							OFFSET 0.000000 9.175140 0.000000
						}
					}
				}
				JOINT LHoodieString
				{
					OFFSET 5.250500 16.397697 3.089900
					CHANNELS 3 Xrotation Yrotation Zrotation
					JOINT LHoodieString1
					{
						OFFSET 0.257700 -6.364304 3.694600
						CHANNELS 3 Xrotation Yrotation Zrotation
						JOINT LHoodieString2
						{
							OFFSET 0.000000 -9.643799 2.679100
							CHANNELS 3 Xrotation Yrotation Zrotation
							End Site
							{
								OFFSET 0.000000 10.009018 0.000000
							}
						}
					}
				}
				JOINT RHoodieString
				{
					OFFSET -5.250500 16.397697 3.089900
					CHANNELS 3 Xrotation Yrotation Zrotation
					JOINT RHoodieString1
					{
						OFFSET -0.257700 -6.364304 3.694600
						CHANNELS 3 Xrotation Yrotation Zrotation
						JOINT RHoodieString2
						{
							OFFSET 0.000000 -9.643799 2.679100
							CHANNELS 3 Xrotation Yrotation Zrotation
							End Site
							{
								OFFSET 0.000000 10.009018 0.000000
							}
						}
					}
				}
			}
			JOINT LBackpack_Strap
			{
				OFFSET 15.223200 -7.719803 -6.610900
				CHANNELS 3 Xrotation Yrotation Zrotation
				End Site
				{
					OFFSET 0.000000 16.040596 0.000000
				}
			}
			JOINT RBackpack_Strap
			{
				OFFSET -15.223000 -7.719803 -6.610900
				CHANNELS 3 Xrotation Yrotation Zrotation
				End Site
				{
					OFFSET 0.000000 16.040596 0.000000
				}
			}
		}
	}
	JOINT BoyFacialAnim_Joint
	{
		OFFSET 1.000000 -82.208099 -1.550900
		CHANNELS 3 Xrotation Yrotation Zrotation
		End Site
		{
			OFFSET 0.000000 30.012791 0.000000
		}
	}
}
MOTION
Frames: 4
Frame Time: 0.033333
1.201453 78.484299 0.668932 0.395480 19.925728 0.093521 -0.000000 -0.000001 -0.000000 -19.669917 4.524343 2.527867 39.217867 -0.248204 -1.354731 -20.022717 14.633539 0.243859 -0.000000 0.000003 0.000000 -0.000000 0.000003 0.000000 -0.000000 0.000002 -0.000001 -30.929880 -9.931432 -12.280215 34.934994 0.277410 1.377274 -4.097536 -4.015487 2.195585 0.000000 -0.000000 -0.000000 0.000000 -0.000000 -0.000000 -0.000001 0.000000 -0.000000 6.343223 -1.240064 -0.474701 12.683210 -2.516545 -0.729751 12.683194 -2.516540 -0.729749 -18.857100 17.878855 -0.956472 -11.451312 41.064050 12.802787 -0.000000 0.000001 -0.000000 -0.000000 0.000001 -0.000000 -0.000000 0.000001 -0.000000 0.528803 -0.425602 -6.625098 -20.361002 -33.402941 -67.445946 0.936522 -25.455709 0.402497 43.428699 -1.519256 -13.379077 -11.648204 -1.241598 3.031616 -10.628901 14.732547 7.874443 -0.000003 0.000001 0.000001 -7.941226 8.891288 -19.463136 1.215048 2.190107 -30.116527 -0.000002 -0.000000 -0.000002 -0.916533 6.331015 -20.198574 -0.101629 -0.897886 -21.948207 0.000001 0.000001 0.000004 0.412482 3.783614 -24.921904 -0.594149 -0.970042 -27.292903 0.000000 0.000002 -0.000002 5.394588 2.303392 -26.665846 -1.498237 -4.487110 -26.751131 -0.000000 0.000001 0.000002 0.000001 0.000002 0.000000 0.475636 0.804715 7.877052 -19.250478 44.205876 67.634924 -0.094834 22.532314 0.019649 16.847734 9.459893 -6.422625 -7.871457 -9.078624 6.475114 -6.847948 -5.342407 -8.073351 -0.000006 0.000001 -0.000001 -7.662651 -6.121921 26.184159 0.101527 -0.805663 10.136908 -0.000001 -0.000001 0.000003 -0.632989 -5.238559 27.353045 -0.199727 0.898661 17.264334 0.000001 0.000003 -0.000002 1.252930 -9.480995 23.062866 -0.802362 1.296912 39.861032 0.000001 0.000002 0.000002 4.070716 -8.533574 35.718519 -1.302789 3.794288 38.436469 0.000002 0.000001 -0.000003 -0.000000 -0.000000 -0.000001 -0.000001 0.000001 -0.000001 -0.000001 0.000001 -0.000001 -0.000001 0.000001 -0.000001 -0.000001 0.000001 -0.000001 -0.000001 0.000001 -0.000001 -0.000001 -0.000001 -0.000000 -0.000001 0.000001 -0.000001 -0.000001 0.000001 -0.000001 -0.000001 -0.000001 -0.000000 0.000001 -0.000001 -0.000000 0.000001 -0.000001 -0.000000 -0.000000 -0.000001 -0.000000 
1.223463 78.490616 0.701478 0.480941 19.935249 0.076485 0.000000 -0.000000 0.000000 -19.697412 4.547511 2.510660 39.170739 -0.247758 -1.353301 -20.029178 14.608776 0.249551 -0.000000 0.000000 0.000000 -0.000000 0.000000 0.000000 -0.000003 -0.000001 0.000000 -30.975065 -9.908639 -12.295188 34.927473 0.277091 1.376994 -4.120265 -4.038982 2.217578 -0.000000 0.000000 0.000000 -0.000000 0.000000 0.000000 0.000001 -0.000000 0.000000 6.345187 -1.240190 -0.469388 12.687251 -2.516206 -0.719455 12.687246 -2.516202 -0.719457 -18.869186 17.876267 -0.925638 -11.184878 41.073401 12.646872 -0.000000 0.000001 -0.000000 -0.000000 0.000001 -0.000000 -0.000000 0.000001 -0.000000 0.528169 -0.423147 -6.593138 -20.381616 -33.278307 -67.501995 0.936956 -25.491111 0.403196 43.383920 -1.483609 -13.350640 -11.648216 -1.241584 3.031626 -10.628892 14.732554 7.874437 -0.000000 -0.000002 -0.000000 -7.941228 8.891318 -19.463106 1.215069 2.190093 -30.116551 -0.000000 0.000002 -0.000002 -0.916531 6.331013 -20.198582 -0.101635 -0.897876 -21.948188 0.000001 0.000000 0.000002 0.412471 3.783605 -24.921905 -0.594141 -0.970031 -27.292912 -0.000001 0.000000 -0.000000 5.394580 2.303406 -26.665849 -1.498233 -4.487118 -26.751129 -0.000002 0.000001 0.000003 0.000001 -0.000001 -0.000000 0.478492 0.768717 7.812130 -19.224614 44.150578 67.689142 -0.093876 22.722197 0.019772 16.777320 9.404602 -6.473149 -7.871436 -9.078610 6.475128 -6.847954 -5.342422 -8.073388 -0.000000 0.000002 -0.000003 -7.662658 -6.121931 26.184162 0.101534 -0.805646 10.136915 -0.000000 -0.000001 0.000003 -0.632985 -5.238560 27.353031 -0.199722 0.898661 17.264341 0.000000 0.000001 0.000002 1.252935 -9.480999 23.062880 -0.802356 1.296923 39.861056 0.000001 0.000003 0.000003 4.070733 -8.533567 35.718519 -1.302785 3.794301 38.436493 0.000001 0.000001 0.000000 -0.000001 -0.000001 -0.000002 -0.000001 0.000000 -0.000001 -0.000001 0.000000 -0.000001 -0.000001 0.000000 -0.000001 -0.000001 0.000000 -0.000001 -0.000001 0.000000 -0.000000 -0.000001 0.000000 -0.000001 -0.000001 0.000000 -0.000001 -0.000001 0.000000 -0.000000 -0.000001 0.000000 -0.000001 0.000002 -0.000000 -0.000000 0.000002 -0.000000 -0.000000 0.000000 -0.000000 0.000000 
1.239635 78.492798 0.731181 0.564457 19.947579 0.070328 -0.000000 0.000000 0.000000 -19.733909 4.580084 2.491061 39.136745 -0.247687 -1.352292 -20.036316 14.573122 0.251689 -0.000000 0.000002 0.000000 -0.000000 0.000002 0.000000 -0.000000 0.000001 0.000000 -31.037804 -9.880310 -12.320454 34.947383 0.277279 1.377665 -4.153499 -4.063364 2.235293 0.000000 -0.000000 0.000000 0.000000 -0.000000 0.000000 0.000000 0.000000 0.000000 6.346980 -1.241969 -0.463827 12.690934 -2.519111 -0.708418 12.690937 -2.519118 -0.708413 -18.881773 17.876236 -0.908774 -11.011628 41.091692 12.538501 0.000000 -0.000000 -0.000001 0.000000 -0.000000 -0.000001 0.000000 -0.000000 -0.000001 0.527814 -0.421079 -6.574577 -20.396760 -33.140372 -67.543331 0.938912 -25.531735 0.404660 43.368774 -1.469685 -13.356332 -11.648208 -1.241586 3.031627 -10.628906 14.732549 7.874454 0.000001 -0.000001 0.000002 -7.941240 8.891305 -19.463119 1.215054 2.190112 -30.116531 -0.000001 0.000003 0.000000 -0.916519 6.331017 -20.198574 -0.101635 -0.897869 -21.948188 0.000000 -0.000001 -0.000002 0.412475 3.783611 -24.921897 -0.594139 -0.970045 -27.292920 -0.000000 -0.000003 0.000001 5.394587 2.303410 -26.665853 -1.498250 -4.487138 -26.751139 -0.000002 0.000003 -0.000003 0.000000 0.000000 0.000000 0.481258 0.743670 7.732827 -19.199179 44.086037 67.750996 -0.089498 22.927261 0.019147 16.729053 9.342996 -6.463561 -7.871444 -9.078628 6.475116 -6.847940 -5.342407 -8.073362 -0.000001 0.000003 0.000000 -7.662657 -6.121952 26.184167 0.101528 -0.805654 10.136890 -0.000001 -0.000000 0.000004 -0.632988 -5.238582 27.353028 -0.199712 0.898664 17.264324 0.000001 0.000000 -0.000000 1.252934 -9.481011 23.062861 -0.802373 1.296933 39.861056 -0.000000 -0.000001 0.000002 4.070714 -8.533576 35.718515 -1.302787 3.794304 38.436469 -0.000004 -0.000000 -0.000002 0.000002 -0.000002 -0.000001 0.000001 0.000000 0.000001 0.000001 0.000000 0.000001 0.000001 0.000000 0.000001 0.000001 0.000000 0.000001 0.000001 0.000000 0.000000 -0.000000 -0.000001 0.000001 0.000001 0.000000 0.000001 0.000001 0.000000 0.000000 -0.000000 -0.000001 0.000001 0.000000 0.000001 0.000000 0.000000 0.000001 0.000000 -0.000000 0.000000 0.000000 
1.253107 78.493675 0.762662 0.653049 19.964433 0.073006 -0.000000 -0.000001 0.000000 -19.774091 4.619561 2.465260 39.101078 -0.247655 -1.351231 -20.041365 14.528685 0.251087 0.000000 0.000002 -0.000000 0.000000 0.000002 -0.000000 -0.000001 0.000000 0.000001 -31.113749 -9.846396 -12.356115 34.983256 0.277700 1.378888 -4.195645 -4.091058 2.251805 0.000000 0.000000 0.000000 0.000000 0.000000 0.000000 -0.000001 0.000000 -0.000000 6.349306 -1.245293 -0.457447 12.695739 -2.525046 -0.695525 12.695728 -2.525052 -0.695522 -18.884913 17.876688 -0.908597 -10.881843 41.112459 12.447692 -0.000000 -0.000000 -0.000001 -0.000000 -0.000000 -0.000001 -0.000000 -0.000000 -0.000001 0.527796 -0.419367 -6.574598 -20.380520 -33.012227 -67.543235 0.945027 -25.603425 0.408340 43.346761 -1.469982 -13.415787 -11.648204 -1.241590 3.031619 -10.628895 14.732537 7.874444 0.000001 -0.000000 0.000000 -7.941223 8.891294 -19.463133 1.215069 2.190095 -30.116534 0.000001 -0.000002 0.000001 -0.916518 6.331011 -20.198579 -0.101645 -0.897879 -21.948181 -0.000002 0.000001 0.000001 0.412493 3.783603 -24.921905 -0.594145 -0.970031 -27.292913 0.000000 0.000002 -0.000000 5.394594 2.303385 -26.665825 -1.498249 -4.487123 -26.751141 0.000001 0.000000 0.000001 0.000002 0.000000 0.000001 0.484533 0.717381 7.631375 -19.221703 44.007735 67.857308 -0.083735 23.109086 0.018188 16.713300 9.294086 -6.422207 -7.871451 -9.078602 6.475121 -6.847934 -5.342425 -8.073373 -0.000002 0.000000 0.000001 -7.662652 -6.121922 26.184171 0.101532 -0.805668 10.136890 -0.000001 0.000000 0.000002 -0.632980 -5.238557 27.353029 -0.199722 0.898658 17.264334 0.000000 0.000002 0.000002 1.252941 -9.480991 23.062882 -0.802372 1.296919 39.861049 0.000000 -0.000002 0.000002 4.070733 -8.533573 35.718508 -1.302800 3.794308 38.436480 -0.000002 0.000000 0.000004 -0.000000 -0.000001 -0.000003 0.000002 0.000000 -0.000000 0.000002 0.000000 -0.000000 0.000002 0.000000 -0.000000 0.000002 0.000000 -0.000000 0.000002 0.000000 -0.000000 0.000000 0.000000 -0.000000 0.000002 0.000000 -0.000000 0.000002 0.000000 -0.000000 0.000000 0.000000 -0.000000 -0.000000 -0.000000 0.000001 -0.000000 -0.000000 0.000001 -0.000000 -0.000001 0.000000 
